<?xml version="1.0" encoding="UTF-8"?>
<!DOCTYPE svg PUBLIC "-//W3C//DTD SVG 1.1//EN" "http://www.w3.org/Graphics/SVG/1.1/DTD/svg11.dtd">
<!-- Creator: CorelDRAW X7 -->
<svg xmlns="http://www.w3.org/2000/svg" xml:space="preserve" width="1.02557in" height="0.852516in" version="1.1" style="shape-rendering:geometricPrecision; text-rendering:geometricPrecision; image-rendering:optimizeQuality; fill-rule:evenodd; clip-rule:evenodd"
viewBox="0 0 124 103"
 xmlns:xlink="http://www.w3.org/1999/xlink">
 <defs>
  <style type="text/css">
   <![CDATA[
    .fil0 {fill:#373435}
    .fil1 {fill:black}
   ]]>
  </style>
 </defs>
 <g id="Layer_x0020_1">
  <metadata id="CorelCorpID_0Corel-Layer"/>
  <g id="_1914385842512">
   <path class="fil0" d="M47 73c0,1 -1,3 -1,4 -4,10 -16,15 -26,12 -2,-1 -5,-2 -5,-4 0,-2 1,-3 2,-3 2,0 3,1 5,1 4,2 10,1 13,-2 1,0 2,-1 2,-2 5,-4 5,-11 2,-17 0,-1 0,-1 -1,-1 0,-1 0,-1 -1,-2l0 0 -1 -2c-2,1 -3,5 -6,4 -1,0 -1,0 -2,-1 -1,-2 2,-5 3,-7 1,0 2,-1 3,-2 0,0 0,0 0,0 0,0 -1,-1 -1,-1 -2,-1 -3,-2 -4,-4 0,-1 -1,-1 -1,-2 0,-2 1,-3 3,-3 0,0 0,0 0,0 1,0 2,1 3,2 1,1 1,2 2,3 0,-1 0,-1 1,-1 1,-1 2,-2 3,-4 1,-2 1,-4 1,-7 0,-5 -2,-10 -7,-13 -3,-2 -8,-2 -12,-1 -5,2 -9,6 -11,11 -5,10 -7,22 -4,32 1,3 2,6 3,8 1,2 1,3 2,4 0,0 1,1 1,2 1,1 2,3 0,4 0,1 -1,1 -1,1 -2,0 -3,-1 -4,-3 -2,-3 -4,-6 -5,-9 -2,-5 -3,-11 -3,-16 0,-13 2,-22 10,-32 7,-9 19,-11 28,-5 8,5 11,16 7,25 1,0 3,-1 3,-1 2,-2 2,-3 3,-4 3,-4 4,-6 4,-11 0,-5 0,-10 0,-15 0,-3 0,-5 1,-7 2,-5 10,-5 12,0 0,2 0,9 0,11 0,4 0,8 0,11 0,3 0,4 2,6 0,1 0,2 1,2 1,3 2,5 5,7 0,0 1,1 2,1 -3,-8 -1,-16 5,-22 4,-5 9,-6 15,-6 2,0 5,0 7,1 3,2 10,6 10,9 0,4 -4,4 -6,2 -14,-17 -36,3 -23,18 0,0 1,1 1,1 0,0 0,0 0,1 1,-1 2,-2 3,-3 2,-3 6,-3 6,1 0,2 -2,3 -3,5l0 0 -2 1 0 0c0,0 -1,1 -1,1 0,0 0,0 0,0 0,0 1,1 1,1 2,2 5,4 5,7 0,3 -4,3 -6,1 0,-1 -1,-2 -2,-3 -1,2 -3,3 -4,5 -3,5 -2,13 2,17 4,4 7,5 13,5 4,0 8,-4 11,-7 9,-12 10,-29 5,-42 -1,-1 -2,-3 -2,-4 0,-3 5,-4 6,0 3,6 5,12 5,19 0,10 -2,18 -7,27 -1,2 -2,3 -4,5 -1,1 -2,2 -4,4 -8,6 -21,5 -28,-4 -3,-4 -5,-9 -4,-13 0,-1 0,-1 0,-2 -1,2 0,4 0,5l0 23c0,2 0,4 -2,5 -4,5 -11,2 -11,-4l0 -28c0,-6 3,-12 8,-14 -4,-2 -8,-6 -10,-10 -1,1 -2,2 -2,2 -2,3 -5,6 -9,8 6,3 9,8 9,14l0 28c0,6 -8,9 -12,4 -1,-1 -1,-3 -1,-5 0,-7 0,-15 0,-22zm-7 -22c1,0 1,0 2,0 1,-1 3,-1 4,-2 7,-2 9,-4 12,-10 3,-4 5,-4 7,0 5,8 8,9 17,12 0,0 1,0 2,0 0,-2 -1,-1 -4,-2 -5,-2 -8,-3 -11,-7 -2,-2 -3,-4 -4,-6 -3,-6 -3,-8 -3,-15l0 -14c0,-2 -1,-2 -1,0 0,4 0,8 0,11 0,2 0,5 0,7 0,2 0,3 0,5 -1,3 -3,6 -5,9 -1,3 -3,6 -6,7 -3,2 -5,2 -7,3 -1,0 -2,0 -3,1 0,0 0,1 0,1zm3 6c0,0 0,0 0,1 1,1 1,0 2,1 2,0 5,2 6,4 2,3 2,8 2,11l0 22c0,0 0,1 0,1 0,0 1,0 1,0l0 -31c0,-2 -2,-5 -4,-6 -1,-1 -2,-2 -3,-2 -1,0 -4,-1 -4,-1 0,0 0,0 0,0zm38 0c0,0 0,0 0,0 0,0 -4,1 -4,1 -4,1 -7,4 -7,8l0 31c0,0 0,0 0,0 1,0 1,-1 1,-2l0 -21c0,-3 -1,-9 1,-11 2,-2 4,-4 7,-4 0,0 1,-1 1,-1 0,0 0,0 0,0 1,-1 1,-1 1,-1z"/>
  </g>
  <path class="fil1" d="M69 97l0 -31c0,-4 3,-8 7,-9 6,-2 4,-2 7,-1 -1,1 -1,1 -2,2 -1,1 0,1 -2,2 -8,2 -7,5 -7,14l0 21c0,4 -3,3 -3,2zm-28 -41c2,-1 1,-1 6,1 2,0 3,1 4,2 2,1 4,4 4,7l0 31c0,1 -3,2 -3,-1l0 -22c0,-9 0,-12 -7,-14 -2,-1 -2,-1 -3,-2 0,-1 -1,-1 -1,-2zm-2 -3c0,-7 2,-3 10,-7 3,-2 5,-5 7,-7 1,-3 3,-6 4,-9 0,-4 0,-18 0,-23 0,-3 3,-3 3,0l0 14c0,8 0,9 3,15 1,1 2,4 4,5 3,4 6,5 11,7 4,1 4,0 4,5 -1,0 -3,-1 -4,-1 -9,-3 -12,-4 -17,-13 -1,-3 -3,-3 -5,0 -3,6 -6,9 -13,11 -1,1 -2,1 -4,2 -1,0 -2,0 -3,1zm4 -9c5,-9 3,-21 -6,-26 -9,-6 -20,-4 -26,4 -8,10 -10,19 -10,32 0,5 2,12 3,15 1,4 3,7 5,10 1,1 1,2 3,2 1,0 2,-2 0,-4 0,0 0,-1 -1,-2 0,-1 -1,-2 -2,-3 -1,-3 -2,-6 -3,-8 -3,-11 -1,-24 4,-34 10,-20 32,-12 32,4 0,3 -1,6 -2,8 0,1 -1,2 -3,4 0,0 0,0 -1,1 -3,-2 -4,-5 -5,-5 -1,0 -2,1 -2,2 0,1 1,1 1,2 1,1 2,2 3,3 1,1 2,1 2,3 0,0 -2,2 -3,2 -1,1 -5,6 -1,6 2,1 3,-4 5,-4l2 3c0,0 1,0 1,1 1,0 1,1 1,1 3,7 3,14 -2,19 -1,1 -1,1 -2,2 -4,3 -10,4 -15,2 -1,0 -2,-1 -4,-1 -1,0 -3,3 3,5 14,4 27,-7 26,-19 0,-2 0,-4 -1,-5 4,1 3,4 3,8 0,8 0,16 0,23 0,2 0,3 1,5 3,4 10,1 10,-4l0 -28c0,-6 -3,-11 -8,-14 -1,0 -1,0 -1,0l-2 -1c5,-1 9,-4 11,-7 1,-1 2,-4 3,-4 1,4 8,10 13,11 0,1 0,0 0,1 -1,0 -1,0 -1,0 -6,2 -9,7 -9,14l0 28c0,5 6,8 9,4 1,-2 2,-2 2,-5l0 -23c0,-4 -1,-7 2,-8 0,1 0,3 0,5 -1,4 1,9 4,12 6,9 18,10 27,4 1,-1 2,-2 4,-4 1,-1 2,-3 3,-4 5,-9 7,-17 7,-27 0,-7 -2,-13 -5,-19 -1,-2 -4,-2 -4,0 0,1 1,3 2,4 5,13 4,31 -5,42 -3,4 -7,8 -12,8 -6,0 -9,-1 -13,-5 -5,-5 -6,-13 -3,-18 2,-3 3,-4 5,-6 1,0 2,2 3,3 1,2 4,2 4,0 0,-2 -3,-5 -5,-6 -1,-1 -1,-1 -1,-2 0,-1 1,-1 1,-2l2 -1c1,-1 3,-3 3,-4 0,-3 -3,-3 -4,-1 -1,2 -2,3 -4,4 0,-1 0,-1 -1,-1 0,-1 0,-1 -1,-2 -13,-15 10,-37 25,-19 1,1 3,2 3,-1 0,-3 -8,-9 -15,-9 -6,0 -10,1 -15,5 -6,7 -7,16 -3,24 -1,0 -4,-2 -5,-3 -2,-1 -4,-4 -5,-6 0,-1 -1,-2 -1,-3 -1,-2 -2,-2 -2,-6 0,-3 1,-19 0,-22 -2,-4 -8,-4 -10,0 -1,2 -1,4 -1,7 0,5 0,10 0,15 0,5 -2,7 -4,11 -1,2 -2,3 -3,4 -1,1 -4,3 -6,3z"/>
 </g>
</svg>
