<svg width="40" height="34" viewBox="0 0 40 34" fill="none" xmlns="http://www.w3.org/2000/svg">
<path d="M24.6667 14.6667H34C34.6188 14.6667 35.2123 14.4208 35.6499 13.9832C36.0875 13.5457 36.3333 12.9522 36.3333 12.3333V5.33333C36.3333 4.71449 36.0875 4.121 35.6499 3.68342C35.2123 3.24583 34.6188 3 34 3H27C26.3812 3 25.7877 3.24583 25.3501 3.68342C24.9125 4.121 24.6667 4.71449 24.6667 5.33333V19.3333C24.6667 25.5563 27.777 29.4437 34 31" stroke="white" stroke-opacity="0.6" stroke-width="6" stroke-linecap="round" stroke-linejoin="round"/>
<path d="M3.66667 14.6667H13C13.6188 14.6667 14.2123 14.4208 14.6499 13.9832C15.0875 13.5457 15.3333 12.9522 15.3333 12.3333V5.33333C15.3333 4.71449 15.0875 4.121 14.6499 3.68342C14.2123 3.24583 13.6188 3 13 3H6C5.38116 3 4.78767 3.24583 4.35008 3.68342C3.9125 4.121 3.66667 4.71449 3.66667 5.33333V19.3333C3.66667 25.5563 6.777 29.4437 13 31" stroke="white" stroke-opacity="0.6" stroke-width="6" stroke-linecap="round" stroke-linejoin="round"/>
</svg>
