<?xml version="1.0" encoding="UTF-8"?><svg xmlns="http://www.w3.org/2000/svg" viewBox="0 0 71.05 53.28"><g id="a"/><g id="b"><g id="c"><g><path d="M33.68,5.76h3.69c.82,0,1.45-.54,1.45-1.22V.97c0-.54-.5-.97-1.11-.97h-4.37c-.61,0-1.11,.44-1.11,.97v3.56c0,.69,.64,1.22,1.46,1.22Z"/><path d="M33.68,12.97h3.69c.82,0,1.45-.54,1.45-1.23v-3.56c0-.55-.49-.97-1.11-.97h-4.37c-.63,0-1.11,.43-1.11,.97v3.56c0,.69,.64,1.23,1.46,1.23Z"/><path d="M69.32,40.17l-.34-.33-3.23,2.36,.54,.46s.76,.66,.74,1.88c-.02,.97-.46,1.91-1.24,2.66-1.09,1.05-3.48,2.29-8.29,2.16-8.14-.18-16.83-5.79-16.92-5.85l-.74-.48c0-.61,.02-1.24,.02-1.88l.13,.07c.24,.14,5.97,3.31,15.11,3.31s13.86-4.23,14.02-8.15c.16-3.97-2.68-6.07-2.8-6.16l-.32-.23-3.64,2.48,.78,.44s1.06,.61,1.63,2.23c.18,.51,.16,1.45-.48,2.43-.82,1.25-2.77,2.81-7.5,3.17-7.82,.6-16.23-2.96-16.31-3l-.6-.25c0-1.16,0-2.32,0-3.46l.26,.06c.23,.05,4.64,.98,9.68,.98,1.31,0,2.66-.06,3.98-.22,5.5-.64,9.88-2.58,11.42-5.03,.65-1.04,.79-2.15,.42-3.23-1.25-3.61-4.88-4.17-5.04-4.19l-.3-.04c.38-1.18,.36-2.43-.3-3.69-1.85-3.57-4.94-3.79-5.07-3.8l-.48-.03-.13,.57c.03-.21,.03-.42,0-.64-.2-1.56-1.43-3.09-3.3-4.09-3.15-1.67-8.08-.76-8.29-.71l-.45,.09v2.67l.62-.08c1.56-.18,5.91-.29,7.28,1.55,.43,.57,.57,1.02,.42,1.34-.21,.44-1.22,1.21-5.6,1.39h-.28v-.12l-.6,.06s-1.62,.14-3.06-.59c-.5-.25-.89-1.15-.98-1.45l-.13-.39h-8.94l-.13,.38c-.09,.3-.48,1.2-.98,1.46-1.44,.73-3.05,.59-3.05,.59l-.61-.06v.13h-.28c-4.37-.19-5.38-.96-5.59-1.4-.15-.31,0-.76,.42-1.34,1.37-1.83,5.72-1.74,7.28-1.55l.62,.08v-2.67l-.45-.09c-.21-.04-5.15-.95-8.29,.71-1.87,.99-3.11,2.52-3.31,4.09-.03,.22-.02,.43,0,.64l-.13-.58-.47,.03c-.13,0-3.22,.23-5.07,3.8-.65,1.26-.67,2.51-.3,3.69l-.3,.04c-.15,.02-3.79,.58-5.04,4.19-.37,1.08-.23,2.2,.42,3.23,1.54,2.46,5.91,4.39,11.41,5.03,1.33,.16,2.68,.22,3.98,.22,5.04,0,9.46-.93,9.69-.98l.26-.06c0,1.15,0,2.3,0,3.46l-.6,.25c-.08,.04-8.53,3.6-16.31,3-4.73-.36-6.69-1.93-7.5-3.17-.64-.99-.66-1.93-.48-2.44,.57-1.62,1.58-2.2,1.62-2.23l.8-.43-3.65-2.49-.31,.23c-.12,.09-2.96,2.18-2.8,6.16,.15,3.92,4.6,8.15,14.01,8.15s14.87-3.17,15.12-3.31l.14-.08c0,.64,.02,1.27,.02,1.88l-.74,.48c-.09,.06-8.78,5.66-16.92,5.85-4.83,.08-7.2-1.11-8.29-2.16-.78-.75-1.22-1.69-1.24-2.66h0c-.03-1.22,.71-1.85,.73-1.88l.56-.45-3.24-2.37-.34,.33c-.09,.09-2.18,2.19-1.66,5.77,.48,3.33,5.14,7.35,12.85,7.35,.88,0,1.8-.05,2.76-.16,8.29-.96,15.11-5.53,15.39-5.73l.22-.15c.07,1.97,.17,3.33,.3,3.61,1.1,2.24,3.8,2.27,3.91,2.27s2.81-.03,3.92-2.27c.14-.28,.23-1.64,.3-3.61l.22,.15c.29,.19,7.11,4.77,15.39,5.73,.96,.11,1.88,.16,2.76,.16,7.71,0,12.37-4.01,12.85-7.35,.51-3.58-1.56-5.68-1.65-5.77Zm-10.17-15.75l-.54,1.04,.62,.21c.6,.2,2.34,.97,2.43,1.87,.06,.56-.6,1.26-1.84,1.97-5.74,3.28-19.3,.79-19.43,.76l-.48-.09c0-1.26,0-2.45-.01-3.49l.31,.05c.22,.04,3.98,.58,8.11,.58,1.68,0,3.42-.09,5.01-.34,2.56-.41,4.57-1.3,5.84-2.55Zm-28,5.77l-.48,.09c-.14,.02-13.7,2.51-19.43-.76-1.24-.71-1.9-1.41-1.84-1.97,.09-.9,1.83-1.67,2.43-1.87l.62-.21-.54-1.03c1.27,1.25,3.27,2.14,5.83,2.55,1.59,.25,3.33,.34,5.01,.34,4.13,0,7.89-.54,8.11-.58l.31-.05c0,1.04-.01,2.23-.01,3.49Zm8.18-6.56l-7.63,.02h-.08c-1.17,.02-3.93,.32-4.86,.41-3.6,.37-8.42,.51-10.96-.91-1.1-.62-1.66-1.28-1.66-1.97,0-1.33,1.97-2.71,2.73-3.13l.36-.2-.31-1.38c.21,.5,.54,.98,1.01,1.41,2.15,1.96,6.39,2.12,7.69,2.12,.21,0,.34,0,.38,0h.29v.16l.51,.04s2.38,.19,3.68,1.14c1.14,.83,1.22,1.52,1.22,1.52v.79c2.21-.01,5.36-.02,7.63-.02v-.75s.09-.7,1.24-1.54c1.3-.95,3.66-1.14,3.68-1.14l.51-.04v-.17h.28s.17,.02,.38,.02c1.3,0,5.54-.16,7.69-2.12,.46-.42,.79-.9,1-1.4l-.3,1.37,.37,.2c.76,.42,2.73,1.8,2.74,3.13,0,.69-.56,1.35-1.66,1.97-3.28,1.83-9.93,1.08-13.1,.58-.31-.05-1.4-.08-2.82-.1Z"/></g></g></g></svg>