<?xml version="1.0" encoding="UTF-8"?>
<!DOCTYPE svg PUBLIC "-//W3C//DTD SVG 1.1//EN" "http://www.w3.org/Graphics/SVG/1.1/DTD/svg11.dtd">
<!-- Creator: CorelDRAW X7 -->
<svg xmlns="http://www.w3.org/2000/svg" xml:space="preserve" width="137.603mm" height="137.503mm" version="1.1" style="shape-rendering:geometricPrecision; text-rendering:geometricPrecision; image-rendering:optimizeQuality; fill-rule:evenodd; clip-rule:evenodd"
viewBox="0 0 13760 13750"
 xmlns:xlink="http://www.w3.org/1999/xlink">
 <defs>
  <style type="text/css">
   <![CDATA[
    .str1 {stroke:#FEFEFE;stroke-width:7.61988}
    .str0 {stroke:black;stroke-width:7.61988}
    .fil1 {fill:#FEFEFE}
    .fil0 {fill:black}
   ]]>
  </style>
 </defs>
 <g id="Layer_x0020_1">
  <metadata id="CorelCorpID_0Corel-Layer"/>
  <g id="_2671170780704">
   <path class="fil0 str0" d="M10075 4264l1059 -746c114,-81 225,-168 341,-246 141,-96 267,-200 416,-286 294,-170 606,-231 917,-55 63,36 160,107 211,158 55,55 105,130 149,195 104,151 222,292 324,445 287,429 412,893 3,1301l-13 12 -3499 2474c-114,84 -229,169 -348,247 -119,78 -232,164 -347,248 -200,146 -553,422 -783,483 -172,45 -331,43 -490,-9 -62,46 -124,95 -185,140 -57,41 -138,102 -219,151 -2,164 -18,300 -125,455 -61,89 -184,185 -268,251 -130,102 -264,199 -399,295 -203,144 -409,283 -615,423 -113,77 -226,154 -339,228 816,42 671,887 59,887l-2540 0c-152,0 -305,-25 -450,-68 -402,-120 -935,-457 -938,-930 -1,-99 23,-195 69,-282 38,-72 85,-120 146,-173l7 -6 1252 -901c163,-120 332,-233 497,-352 333,-241 668,-478 1001,-718 166,-121 329,-245 497,-363 150,-104 488,-349 671,-349 105,0 214,4 318,23 23,5 44,10 64,15 30,-22 59,-47 86,-67 100,-76 203,-149 308,-220 22,-387 173,-564 515,-795 224,-152 444,-308 663,-466l1284 -905c-6,0 -13,1 -19,1 -276,21 -544,-102 -811,-156 -89,-18 -176,-31 -262,-40 21,21 42,42 62,63 152,164 305,418 195,645 -84,171 -269,224 -446,224 -127,0 -223,-88 -307,-173 -78,-80 -151,-164 -232,-241 -165,-159 -360,-300 -598,-300 -71,0 -75,19 -122,68 -69,74 -139,124 -239,150 -272,70 -533,-147 -533,-424 0,-443 647,-703 997,-805 226,-66 481,-115 717,-115 167,0 475,11 723,49 7,-161 32,-302 111,-488 46,-107 91,-206 157,-298 -423,-136 -901,-147 -1335,-147 -796,0 -1922,635 -2472,1290 146,107 291,250 389,348 347,347 624,773 840,1212 83,170 285,634 285,806 0,199 -185,418 -391,418 -140,0 -274,-29 -372,-136 -95,-104 -113,-239 -163,-365 -61,-152 -123,-305 -200,-449 -72,-134 -156,-265 -234,-395 -158,-264 -337,-443 -564,-646 -345,-308 -811,-470 -1271,-470 -1608,0 -2413,1463 -2413,2916 0,1099 358,2230 1004,3122 108,150 219,279 341,418 45,52 89,104 131,159 102,131 232,212 348,329 404,404 953,657 1458,911 369,186 757,351 1155,467 510,150 1109,238 1624,65 345,-116 610,-335 809,-638 449,-679 619,-1513 770,-2299 49,-251 95,-504 123,-758 8,-65 10,-131 14,-197 13,-186 37,-400 190,-528 75,-64 168,-93 266,-93 324,0 475,272 440,569l-1 4 -208 1338 -1 4c-297,1483 -769,3194 -2485,3527 -407,79 -823,49 -1227,-31 -599,-120 -1225,-328 -1770,-603 -173,-88 -351,-163 -521,-257 -602,-336 -1365,-854 -1785,-1397l-341 -430 -2 -2c-717,-950 -1144,-2175 -1194,-3363l0 -4 0 -463 0 -4c25,-572 141,-1139 368,-1666 30,-70 107,-232 114,-309 3,-42 1,-89 1,-132 2,-109 11,-218 23,-326 57,-525 264,-984 620,-1374 118,-129 247,-244 383,-354 46,-36 92,-72 138,-110 18,-15 46,-36 62,-54 380,-447 275,-1343 275,-1897 0,-100 21,-197 63,-288 220,-473 936,-632 1413,-632 168,0 337,7 503,27 582,72 1132,330 1132,999l-1 4 -25 1348c0,129 -14,258 -30,386 -2,17 -4,33 -6,50 66,-52 131,-104 202,-151 1506,-995 3075,-1023 4669,-208 659,338 513,1283 172,1796 -2,3 -3,6 -5,9zm-716 -489c74,-107 125,-261 138,-367 -31,52 -57,104 -70,134 -30,67 -60,155 -68,233zm-5327 -155c3,-11 5,-22 7,-31 24,-113 45,-228 65,-342 30,-173 65,-367 78,-541 24,-329 28,-660 28,-990 -406,102 -932,102 -1338,-1 -17,586 -107,1271 -511,1677 -52,51 -101,104 -156,153 -58,52 -119,82 -178,129 -24,19 -47,43 -71,65l-122 123c63,-32 124,-60 180,-83 389,-159 789,-257 1212,-257 189,0 388,6 574,39 83,15 155,36 232,59zm-825 -2725c100,21 206,38 300,33 95,-5 191,-19 287,-25 23,-1 45,-3 67,-6 -111,-16 -224,-22 -321,-22 -108,-1 -222,5 -333,20zm5066 6751c68,-28 202,-125 253,-162 95,-68 190,-142 287,-206l3629 -2560 2 -1c79,-54 372,-236 436,-329 -35,-77 -135,-216 -174,-270 -84,-117 -174,-228 -259,-344 -9,-13 -35,-52 -51,-71 -57,29 -132,81 -175,109 -123,81 -244,165 -364,250 -129,91 -257,184 -384,277 -75,54 -150,111 -226,163 -203,138 -400,285 -601,427l-2129 1498c-189,131 -384,258 -569,393 -32,24 -140,104 -171,146 31,74 228,322 267,374 32,44 177,272 229,306zm-1152 195c35,48 73,96 108,144 43,-29 92,-66 138,-101 -35,-48 -70,-95 -105,-142 -21,14 -41,29 -60,42 -22,15 -51,36 -81,57zm-394 928c-18,-30 -46,-67 -58,-84 -72,-97 -147,-191 -219,-288 -45,-62 -148,-225 -225,-320 -33,22 -65,45 -94,64 -137,93 -273,187 -408,281 -385,268 -767,539 -1149,811 -386,275 -771,551 -1155,829 -134,97 -268,195 -401,293 0,0 -1,1 -2,1 163,82 382,71 554,71 619,0 1678,-612 2182,-968 129,-90 257,-182 384,-274 150,-108 302,-210 454,-315 27,-18 97,-66 137,-101zm-5570 -1479c0,-766 366,-1661 954,-2160 109,-92 253,-181 380,-245 191,-97 463,-197 661,-64 119,81 164,214 164,353 0,125 -32,243 -125,331 -87,82 -186,103 -290,149 -133,58 -280,164 -369,280 -233,303 -396,619 -459,997 -19,116 -27,231 -42,347 -16,119 -42,236 -123,330 -40,47 -90,83 -146,108 -107,47 -245,45 -352,0 -175,-74 -253,-242 -253,-426zm5402 3581c0,-147 80,-289 206,-364 198,-116 589,-80 820,-80 261,0 512,147 519,431 7,263 -210,457 -466,457 -77,0 -155,4 -232,7 -242,10 -580,27 -752,-178 -65,-77 -95,-172 -95,-273z"/>
   <path class="fil1 str1" d="M9215 4099c-34,-146 -53,-92 -53,-291 0,-423 555,-1171 555,-450 0,250 -190,734 -502,741z"/>
   <path class="fil1 str1" d="M2687 898c192,-262 1119,-296 1551,-122 84,34 112,73 195,95l0 53c-103,28 -254,163 -609,185 -324,20 -303,63 -756,-37 -147,-32 -310,-78 -381,-174z"/>
  </g>
 </g>
</svg>
