<?xml version="1.0" encoding="UTF-8"?>
<!DOCTYPE svg PUBLIC "-//W3C//DTD SVG 1.1//EN" "http://www.w3.org/Graphics/SVG/1.1/DTD/svg11.dtd">
<!-- Creator: CorelDRAW X7 -->
<svg xmlns="http://www.w3.org/2000/svg" xml:space="preserve" width="0.391571in" height="0.391484in" version="1.1" style="shape-rendering:geometricPrecision; text-rendering:geometricPrecision; image-rendering:optimizeQuality; fill-rule:evenodd; clip-rule:evenodd"
viewBox="0 0 392 391"
 xmlns:xlink="http://www.w3.org/1999/xlink">
 <defs>
  <style type="text/css">
   <![CDATA[
    .str0 {stroke:#2892D0;stroke-width:2.99997}
    .fil0 {fill:#2892D0}
   ]]>
  </style>
 </defs>
 <g id="Shadow">
  <metadata id="CorelCorpID_0Corel-Layer"/>
  <path class="fil0 str0" d="M170 65c14,3 23,2 38,2 4,0 11,-1 13,-2 0,33 -3,28 51,28 13,0 25,-2 35,3 4,2 8,5 11,8 2,3 6,10 6,14l-256 0c1,-8 9,-18 17,-22 9,-5 21,-3 35,-3 13,0 26,0 39,0 15,0 11,-13 11,-28zm64 249l0 11 14 0 0 -14 -11 0c-2,0 -3,1 -3,3zm-90 11l13 0 0 -11c0,-2 0,-3 -2,-3l-11 0 0 14zm-142 -153l0 11 14 0 0 -13 -12 0c-2,0 -2,0 -2,2zm51 71c0,14 -2,11 12,11 3,0 2,-4 2,-11 0,-4 -4,-2 -12,-2 -1,0 -2,0 -2,2zm259 67c0,2 0,2 2,2l22 0c4,0 2,-4 2,-13l-26 0 0 11zm-13 28l37 0c4,0 2,-4 2,-11 0,-2 0,-2 -2,-2l-37 0 0 13zm-246 -166l0 56 14 0 0 -58 -12 0c-1,0 -2,0 -2,2zm-12 -15l310 0 0 194 -310 0 0 -194zm-13 0l0 195c0,3 3,7 4,8 2,2 5,4 9,4l310 0c7,0 13,-6 13,-13l0 -194c0,-7 -6,-13 -12,-13l-312 0c-6,0 -12,6 -12,13zm217 174c-15,0 -15,-6 -29,-6l-13 0 0 -13c8,0 17,1 25,-2 11,-5 4,-4 20,-4 6,0 12,5 12,10 0,5 0,9 -4,12 -3,2 -7,3 -11,3zm-113 -11l0 -4c0,-4 6,-10 10,-10 16,0 10,-1 21,4 8,3 17,2 26,2l0 13c-10,0 -17,-1 -27,3 -7,2 -6,3 -16,3 -4,0 -7,-1 -9,-2 -2,-2 -5,-5 -5,-9zm71 -47l0 -12c12,0 33,-2 45,-4 5,-1 9,-1 12,4 -6,8 -41,12 -57,12zm-71 -12c1,-2 1,-2 3,-3 5,-4 7,-2 16,-1 12,2 25,4 38,4l0 12c-16,0 -52,-4 -57,-12zm71 -14l0 -12 19 -1c6,-1 13,-1 18,-1 8,-2 21,-4 26,-2 3,1 5,2 6,4 -5,3 -8,4 -14,6 -10,2 -35,6 -46,6 -4,0 -5,0 -9,0zm-83 -13c4,-3 7,-5 14,-4 6,1 12,2 18,2 2,1 6,1 8,1l29 2 0 12c-4,0 -5,0 -10,0 -13,0 -54,-5 -59,-13zm69 -62l0 49c-17,0 -30,-1 -45,-3 -7,0 -14,-2 -20,-3l-17 -5c1,-3 0,-2 6,-4 15,-6 48,-9 64,-9l0 -14c-15,0 -84,3 -84,26 0,9 12,15 17,15 -1,4 -2,1 -4,8 -1,3 -1,6 1,9 2,3 4,4 7,6 2,2 5,3 8,4 -3,5 -7,10 -1,18 2,2 5,4 7,5 6,3 12,6 18,7 8,2 24,5 33,5 11,1 10,-4 10,13 -13,0 -14,1 -25,-4 -15,-7 -46,-2 -46,23 0,14 12,27 26,27 25,0 20,-7 29,-7l45 0c9,0 5,7 30,7 14,0 26,-13 26,-27 0,-14 -13,-26 -28,-26 -22,0 -18,7 -32,7l-11 0c0,-22 -4,-7 42,-18 6,-1 13,-3 18,-6 2,-1 5,-3 7,-5 6,-7 4,-13 0,-19 5,-1 11,-5 14,-10 6,-7 0,-13 -2,-16 7,-4 17,-6 17,-17 0,-7 -8,-11 -13,-14 -18,-8 -50,-11 -71,-11 0,5 0,8 0,14 16,0 40,2 55,6 8,2 13,5 15,5l-7 4c-18,7 -57,9 -75,9l0 -49c0,-3 -4,-2 -12,-2 -1,0 -2,0 -2,2zm-52 -168c0,17 -1,34 12,48 10,10 8,-1 8,27l-59 0c-20,0 -38,16 -43,34 -1,6 2,5 -13,5 -8,0 -29,-2 -35,3 -7,5 -5,23 -5,34 0,4 5,2 14,2l0 -25 360 0 0 244 -360 0 0 -180c-9,0 -14,-1 -14,2l0 175c0,11 5,17 16,17l356 0c10,0 16,-6 16,-17l0 -238c0,-17 -11,-17 -21,-17l-29 0c-4,0 -3,-1 -4,-5 -4,-18 -22,-34 -42,-34l-59 0c0,-28 -2,-17 8,-27 12,-14 11,-30 11,-48 0,-3 -3,-2 -11,-2 -3,0 -2,5 -2,8 0,3 0,7 0,10 0,9 -1,11 -4,17 -4,8 -14,16 -25,16l-32 0c-11,0 -21,-8 -25,-16 -5,-10 -4,-14 -4,-27 0,-10 2,-8 -12,-8 -1,0 -2,0 -2,2z"/>
 </g>
</svg>
