<svg width="57" height="57" viewBox="0 0 57 57" fill="none" xmlns="http://www.w3.org/2000/svg">
<g clip-path="url(#clip0_103_230)">
<path d="M46.303 33.2096L50.9723 41.2988C51.1644 41.6319 51.2729 42.0066 51.2884 42.3908C51.3039 42.775 51.2261 43.1573 51.0614 43.5047C50.8968 43.8522 50.6503 44.1546 50.3432 44.3859C50.036 44.6172 49.6773 44.7706 49.2979 44.8328L49.0295 44.859L48.7635 44.8566L41.7976 44.4053L38.703 50.6658C38.535 51.0048 38.2885 51.2988 37.984 51.5234C37.6795 51.748 37.3259 51.8967 36.9524 51.957C36.5789 52.0174 36.1963 51.9878 35.8366 51.8706C35.4769 51.7535 35.1503 51.5521 34.884 51.2833L34.6893 51.0601L34.5183 50.7988L29.8443 42.7072C33.1345 42.5015 36.3325 41.5371 39.1879 39.8894C42.0433 38.2417 44.4785 35.9554 46.303 33.2096Z" fill="url(#paint0_linear_103_230)"/>
<path d="M27.1462 42.7073L22.477 50.8013C22.2878 51.1292 22.023 51.4072 21.7047 51.6121C21.3864 51.817 21.0237 51.943 20.6469 51.9794C20.27 52.0159 19.89 51.9619 19.5382 51.8218C19.1865 51.6817 18.8733 51.4597 18.6247 51.1742L18.4442 50.9367L18.2922 50.6659L15.1952 44.4078L8.23412 44.859C7.85067 44.8837 7.46696 44.815 7.11585 44.659C6.76474 44.5029 6.45668 44.264 6.21808 43.9629C5.97947 43.6617 5.81742 43.3072 5.74581 42.9297C5.67419 42.5522 5.69514 42.1629 5.80687 41.7953L5.90187 41.5411L6.02062 41.3037L10.6946 33.2073C12.5178 35.9531 14.9517 38.2397 17.8058 39.8882C20.6599 41.5367 23.8568 42.5 27.1462 42.7073Z" fill="url(#paint1_linear_103_230)"/>
<path d="M28.5 4.75L29.07 4.7595C33.378 4.90729 37.4603 6.72258 40.4556 9.82246C43.4509 12.9223 45.1251 17.0644 45.125 21.375L45.1179 21.8334L45.1012 22.2894L45.0585 22.8713L44.9967 23.446L44.9398 23.8688C44.7835 24.8939 44.5314 25.9022 44.1869 26.8802L43.9114 27.6118L43.548 28.4382C42.2035 31.3025 40.0696 33.7236 37.397 35.4173C34.7243 37.111 31.6239 38.007 28.4598 38C25.2957 37.993 22.1993 37.0834 19.5342 35.3779C16.8691 33.6724 14.7459 31.2419 13.414 28.3718L13.1053 27.6664L12.9818 27.3505L12.7918 26.8351L12.5661 26.1369C12.4855 25.8665 12.4119 25.594 12.3452 25.3199L12.2028 24.6763L12.0864 24.0326L12.0389 23.7025L11.9463 22.9354L11.8893 22.0685L11.875 21.375C11.8749 17.0644 13.5491 12.9223 16.5444 9.82246C19.5397 6.72258 23.622 4.90729 27.93 4.7595L28.5 4.75Z" fill="url(#paint2_linear_103_230)"/>
</g>
<defs>
<linearGradient id="paint0_linear_103_230" x1="30.6908" y1="35.1862" x2="46.1203" y2="52.8082" gradientUnits="userSpaceOnUse">
<stop stop-color="#1C75BC"/>
<stop offset="1" stop-color="#00A79D"/>
</linearGradient>
<linearGradient id="paint1_linear_103_230" x1="6.55055" y1="35.1845" x2="21.9854" y2="52.8042" gradientUnits="userSpaceOnUse">
<stop stop-color="#1C75BC"/>
<stop offset="1" stop-color="#00A79D"/>
</linearGradient>
<linearGradient id="paint2_linear_103_230" x1="13.1875" y1="8.25" x2="40.75" y2="35.8125" gradientUnits="userSpaceOnUse">
<stop stop-color="#1C75BC"/>
<stop offset="1" stop-color="#00A79D"/>
</linearGradient>
<clipPath id="clip0_103_230">
<rect width="57" height="57" fill="white"/>
</clipPath>
</defs>
</svg>
